
<svg  xmlns="http://www.w3.org/2000/svg" viewBox="0 0 39.000000 28.000000">
<g transform="translate(0.000000,28.000000) scale(0.100000,-0.100000)" stroke="none">
<path d="M80 260 c-11 -11 -20 -24 -20 -30 0 -5 -13 -10 -30 -10 -33 0 -39
-14 -14 -28 14 -8 15 -14 5 -42 -16 -47 -14 -125 4 -140 19 -16 45 -6 52 20 5
18 14 20 118 20 104 0 113 -2 118 -20 7 -26 33 -36 52 -20 18 15 20 93 4 140
-10 28 -9 34 5 42 25 14 19 28 -14 28 -16 0 -30 5 -30 10 0 6 -9 19 -20 30
-17 17 -33 20 -115 20 -82 0 -98 -3 -115 -20z m218 -12 c5 -7 12 -22 14 -33 3
-19 -3 -20 -117 -20 -114 0 -120 1 -117 20 7 40 21 45 117 45 62 0 96 -4 103
-12z m-200 -108 c6 0 12 -7 12 -15 0 -17 -65 -22 -75 -5 -10 17 6 32 29 26 11
-3 27 -6 34 -6z m257 -10 c0 -10 -12 -16 -37 -18 -28 -2 -38 1 -38 12 0 14 29
25 60 22 8 -1 15 -8 15 -16z"/>
</g>
</svg>
