<svg xmlns="http://www.w3.org/2000/svg" viewBox="0 0 39.000000 28.000000">

<g transform="translate(0.000000,28.000000) scale(0.100000,-0.100000)" stroke="none">
<path d="M100 260 c0 -5 16 -10 35 -10 19 0 35 5 35 10 0 6 -16 10 -35 10 -19
0 -35 -4 -35 -10z"/>
<path d="M230 260 c0 -5 16 -10 35 -10 19 0 35 5 35 10 0 6 -16 10 -35 10 -19
0 -35 -4 -35 -10z"/>
<path d="M40 215 c0 -13 24 -15 160 -15 136 0 160 2 160 15 0 13 -24 15 -160
15 -136 0 -160 -2 -160 -15z"/>
<path d="M62 109 c5 -94 13 -99 138 -99 125 0 133 5 138 99 l4 71 -43 0 c-38
0 -47 -5 -67 -33 -19 -27 -20 -33 -7 -37 12 -4 6 -15 -26 -45 l-41 -40 16 39
c19 47 19 46 1 46 -19 0 -19 8 -1 43 l15 27 -66 0 -65 0 4 -71z m248 4 c23
-20 26 -33 6 -33 -8 0 -17 -6 -20 -12 -5 -10 -7 -10 -12 0 -3 6 -12 12 -20 12
-8 0 -14 7 -14 15 0 8 7 15 15 15 8 0 15 5 15 10 0 14 7 13 30 -7z m-160 -18
c0 -11 -11 -15 -40 -15 -38 0 -49 8 -33 23 3 4 21 7 40 7 23 0 33 -5 33 -15z"/>
</g>
</svg>
