
<svg version="1.0" xmlns="http://www.w3.org/2000/svg" viewBox="0 0 41.000000 35.000000">

<g transform="translate(0.000000,35.000000) scale(0.100000,-0.100000)" stroke="none">
<path d="M281 302 l-19 -38 60 -34 c58 -31 62 -32 74 -15 12 16 8 24 -33 71 -25 30 -49 54 -54 54 -5 0 -17 -17 -28 -38z"/>
<path d="M57 214 c-4 -4 -7 -15 -7 -25 0 -21 76 -69 108 -69 12 0 37 -16 57 -36 46 -45 73 -43 100 10 20 37 20 38 1 50 -10 6 -30 20 -45 32 -18 14 -47 23 -91 27 -36 4 -76 9 -90 12 -14 4 -29 3 -33 -1z m163 -34"/>
<path d="M270 207 c0 -19 57 -50 66 -36 4 7 -2 20 -16 31 -26 21 -50 24 -50 5z"/>
<path d="M6 162 c-3 -5 29 -29 71 -53 91 -53 93 -53 93 -41 0 6 -21 22 -47 37 -27 15 -62 36 -80 47 -17 10 -34 15 -37 10z"/>
<path d="M44 55 c-10 -19 -24 -35 -31 -35 -7 0 -13 -4 -13 -10 0 -6 70 -10 190 -10 120 0 190 4 190 10 0 6 -62 10 -165 10 -91 0 -165 3 -165 8 0 4 7 16 15 26 17 22 19 36 7 36 -5 0 -17 -16 -28 -35z"/>
</g>
</svg>
