<svg version="1.0" xmlns="http://www.w3.org/2000/svg" viewBox="0 0 28.000000 40.000000">

<g transform="translate(0.000000,40.000000) scale(0.100000,-0.100000)" stroke="none">
<path d="M12 388 c-17 -17 -15 -83 3 -98 24 -20 45 5 45 55 0 30 -5 45 -16 49
-20 8 -18 8 -32 -6z"/>
<path d="M233 393 c-18 -7 -17 -88 2 -103 12 -10 18 -10 30 0 18 15 20 81 3
98 -13 13 -16 13 -35 5z"/>
<path d="M90 340 c0 -11 7 -20 15 -20 23 0 18 -39 -10 -72 -31 -37 -31 -59 0
-96 28 -33 33 -72 10 -72 -8 0 -15 -9 -15 -20 0 -17 7 -20 50 -20 43 0 50 3
50 20 0 11 -7 20 -15 20 -23 0 -18 39 10 72 14 16 25 38 25 48 0 10 -11 32
-25 48 -28 33 -33 72 -10 72 8 0 15 9 15 20 0 17 -7 20 -50 20 -43 0 -50 -3
-50 -20z m75 -140 c0 -18 -6 -26 -23 -28 -24 -4 -38 18 -28 44 3 9 15 14 28
12 17 -2 23 -10 23 -28z"/>
<path d="M12 108 c-16 -16 -15 -83 2 -97 7 -6 21 -9 30 -5 29 11 17 114 -14
114 -3 0 -11 -5 -18 -12z"/>
<path d="M232 108 c-19 -19 -15 -95 4 -102 25 -10 44 13 44 53 0 33 -14 61
-30 61 -3 0 -11 -5 -18 -12z"/>
</g>
</svg>
